<svg width="24" height="24" viewBox="0 0 24 24" fill="none" xmlns="http://www.w3.org/2000/svg">
<path d="M10.268 21C10.4435 21.304 10.696 21.5565 11 21.732C11.3041 21.9075 11.6489 21.9999 12 21.9999C12.351 21.9999 12.6959 21.9075 12.9999 21.732C13.304 21.5565 13.5564 21.304 13.732 21M13.916 2.314C13.0135 2.00987 12.0515 1.92496 11.1097 2.06628C10.1678 2.2076 9.27317 2.57109 8.49965 3.12671C7.72613 3.68232 7.09598 4.41409 6.66132 5.2615C6.22666 6.10891 5.99997 7.04762 5.99999 8C5.99999 12.499 4.58899 13.956 3.25999 15.327C3.12957 15.4703 3.0436 15.6485 3.01255 15.8398C2.9815 16.0311 3.00671 16.2273 3.0851 16.4045C3.1635 16.5818 3.2917 16.7324 3.45413 16.8381C3.61655 16.9438 3.80619 17.0001 3.99999 17H20C20.1938 17.0001 20.3834 16.9438 20.5459 16.8381C20.7083 16.7324 20.8365 16.5818 20.9149 16.4045C20.9933 16.2273 21.0185 16.0311 20.9874 15.8398C20.9564 15.6485 20.8704 15.4703 20.74 15.327C20.5342 15.1151 20.339 14.8931 20.155 14.662M21 8C21 9.65686 19.6568 11 18 11C16.3431 11 15 9.65686 15 8C15 6.34315 16.3431 5 18 5C19.6568 5 21 6.34315 21 8Z" stroke="black" stroke-width="2" stroke-linecap="round" stroke-linejoin="round"/>
</svg>
